<svg id="ucf-social-icons" style="display:none;">
    <defs>
        <symbol id="ucf-social-icons--facebook" viewBox="0 0 43.08 80">
            <path fill="currentColor" d="M40.2540352,45 L42.4878396,30.521875 L28.5210639,30.521875 L28.5210639,21.1265625 C28.5210639,17.165625 30.4721083,13.3046875 36.727389,13.3046875 L43.0769231,13.3046875 L43.0769231,0.978125 C43.0769231,0.978125 37.3149016,0 31.8057932,0 C20.3037426,0 12.785467,6.934375 12.785467,19.4875 L12.785467,30.521875 L0,30.521875 L0,45 L12.785467,45 L12.785467,80 L28.5210639,80 L28.5210639,45 L40.2540352,45 Z"></path>
        </symbol>
        <symbol id="ucf-social-icons--twitter" viewBox="0 0 99 80">
            <path fill="currentColor" d="M88.8238431,19.9374274 C88.8866851,20.8123856 88.8866851,21.6875362 88.8866851,22.5624944 C88.8866851,49.2498743 68.4711425,80 31.1574713,80 C19.6618249,80 8.98293157,76.6873559 0,70.937603 C1.63331302,71.1249841 3.20359064,71.1875086 4.8997457,71.1875086 C14.3850269,71.1875086 23.1167837,68.0001058 30.0895433,62.5625906 C21.1694538,62.3750171 13.6941511,56.5625473 11.1185942,48.5624896 C12.3750483,48.7498707 13.6313091,48.8749197 14.9506053,48.8749197 C16.7722511,48.8749197 18.5940902,48.6248217 20.2900519,48.187535 C10.9931035,46.3123772 4.02015047,38.1874629 4.02015047,28.3749642 L4.02015047,28.1250586 C6.72119813,29.6250694 9.86233345,30.5625522 13.1914148,30.6874088 C7.72628409,27.0623345 4.14583455,20.8749101 4.14583455,13.8748596 C4.14583455,10.1249288 5.15072715,6.68742801 6.90972426,3.68740636 C16.8977418,15.9373985 31.9111891,23.9372639 48.7460889,24.8124145 C48.432072,23.3124037 48.2435459,21.7500607 48.2435459,20.1875254 C48.2435459,9.06239704 57.2893195,0 68.5335978,0 C74.3755874,0 79.652192,2.43749354 83.358519,6.3749979 C87.9440545,5.50003968 92.3412572,3.81245536 96.2361103,1.50001082 C94.728288,6.18761678 91.5246974,10.1251211 87.3160208,12.6249468 C91.3992066,12.1876601 95.3567084,11.0624115 99,9.50006854 C96.236497,13.499905 92.7813448,17.0622624 88.8238431,19.9374274 Z"></path>
        </symbol>
        <symbol id="ucf-social-icons--youtube" viewBox="0 0 114 80">
            <path fill="currentColor" d="M57.8198184,0.000923665833 C60.479898,0.00964584708 69.2214891,0.0619789346 78.3577166,0.37597746 L79.5777196,0.419413683 C88.5342354,0.749597896 97.6264015,1.33921256 101.538105,2.3920959 C106.442868,3.7089709 110.305811,7.58938756 111.616906,12.5164709 C112.419312,15.5246814 112.951433,19.6337392 113.304314,23.7607015 L113.3684,24.5344523 C113.926678,31.4953393 113.990742,38.3144714 113.998094,39.7878537 L113.998972,40.025161 C113.998997,40.0372511 113.999014,40.0473757 113.999025,40.0555019 L113.999025,40.1045232 C113.999014,40.1126494 113.998997,40.1227741 113.998972,40.1348642 L113.998094,40.3721714 C113.990742,41.8455537 113.926678,48.6646858 113.3684,55.6255728 L113.304314,56.3993236 C112.951433,60.5262859 112.419312,64.6353437 111.616906,67.6435542 C110.305811,72.5706376 106.442868,76.2893876 101.538105,77.6062626 C97.9819274,78.5634292 90.1444425,79.1377292 82.0196847,79.4823092 L80.7993157,79.5322925 C70.4163532,79.9428308 59.8910326,79.9923786 57.5016761,79.9983585 L57.2586108,79.9988801 C57.2245223,79.9989399 57.1936867,79.9989878 57.1661663,79.9990261 L56.8319277,79.9990261 C56.8044073,79.9989878 56.7735717,79.9989399 56.7394832,79.9988801 L56.4964179,79.9983585 C54.1070614,79.9923786 43.5817408,79.9428308 33.1987783,79.5322925 L31.9784093,79.4823092 C23.8536515,79.1377292 16.0161666,78.5634292 12.4599888,77.6062626 C7.55522553,76.2893876 3.69228346,72.5706376 2.38118765,67.6435542 C1.65400788,64.9173634 1.14880929,61.2870588 0.797829227,57.5586674 L0.727390936,56.7861409 C0.716010562,56.6572413 0.704808006,56.5282912 0.693780491,56.3993236 L0.629693649,55.6255728 C0.0817547614,48.7935911 0.00989392371,42.0981627 0.000469551561,40.4594927 L0.000469551561,39.7005324 C0.00989392371,38.0618624 0.0817547614,31.366434 0.629693649,24.5344523 L0.693780491,23.7607015 C0.704808006,23.6317339 0.716010562,23.5027838 0.727390936,23.3738843 L0.797829227,22.6013578 C1.14880929,18.8729663 1.65400788,15.2426617 2.38118765,12.5164709 C3.69228346,7.58938756 7.55522553,3.70917923 12.4599888,2.3920959 C16.3717844,1.33921256 25.4639615,0.749597896 34.4204608,0.419413683 L35.6404614,0.37597746 C44.7766696,0.0619789346 53.5182152,0.00964584708 56.1782802,0.000923665833 Z M45.3398754,23.1627209 L45.3398754,56.9973042 L75.1352114,40.0804292 L45.3398754,23.1627209 Z"></path>
        </symbol>
        <symbol id="ucf-social-icons--linkedin" viewBox="0 0 80 80">
            <path fill="currentColor" d="M17.9071429,80 L1.32142857,80 L1.32142857,26.5880934 L17.9071429,26.5880934 L17.9071429,80 Z M9.60535714,19.3022165 C4.30178571,19.3022165 0,14.9092613 0,9.60557143 C0,4.30056079 4.30046493,-2.84217094e-14 9.60535714,-2.84217094e-14 C14.9102494,-2.84217094e-14 19.2107143,4.30056079 19.2107143,9.60557143 C19.2107143,14.9092613 14.9071429,19.3022165 9.60535714,19.3022165 Z M79.9821429,80 L63.4321429,80 L63.4321429,53.9994196 C63.4321429,47.8028527 63.3071429,39.8562467 54.8089286,39.8562467 C46.1857143,39.8562467 44.8642857,46.5885399 44.8642857,53.552981 L44.8642857,80 L28.2964286,80 L28.2964286,26.5880934 L44.2035714,26.5880934 L44.2035714,33.8739703 L44.4357143,33.8739703 C46.65,29.6774481 52.0589286,25.2487778 60.1285714,25.2487778 C76.9142857,25.2487778 80,36.302596 80,50.6600593 L80,80 L79.9821429,80 Z"></path>
        </symbol>
        <symbol id="ucf-social-icons--linkedin-sq" viewBox="0 0 80 80">
            <path fill="currentColor" d="M74.2857143,0 C77.4285714,0 80,2.58928571 80,5.76785714 L80,5.76785714 L80,74.2321429 C80,77.4107143 77.4285714,80 74.2857143,80 L74.2857143,80 L5.69642857,80 C2.55357143,80 0,77.4107143 0,74.2321429 L0,74.2321429 L0,5.76785714 C0,2.58928571 2.55357143,0 5.69642857,0 L5.69642857,0 Z M24.1964286,30.3928571 L12.3214286,30.3928571 L12.3214286,68.5714286 L24.1964286,68.5714286 L24.1964286,30.3928571 Z M54.3928571,29.4464286 C48.625,29.4464286 44.75,32.6071429 43.1607143,35.6071429 L43.1607143,35.6071429 L43,35.6071429 L43,30.3928571 L31.625,30.3928571 L31.625,68.5714286 L43.4821429,68.5714286 L43.4828995,49.437645 C43.5140339,44.5421529 44.5282258,39.875 50.6071429,39.875 C56.4858277,39.875 56.7561593,45.2154915 56.7673987,49.5746208 L56.7678571,68.5714286 L68.625,68.5714286 L68.625,47.6428571 C68.625,37.3571429 66.3928571,29.4464286 54.3928571,29.4464286 Z M18.25,11.4285714 C14.4464286,11.4285714 11.375,14.5178571 11.375,18.3035714 C11.375,22.0892857 14.4464286,25.1785714 18.25,25.1785714 C22.0535714,25.1785714 25.125,22.1071429 25.125,18.3035714 C25.125,14.5178571 22.0357143,11.4285714 18.25,11.4285714 Z"></path>
        </symbol>
        <symbol id="ucf-social-icons--tiktok" viewBox="0 0 68 80">
            <path fill="currentColor" d="M67.9886748,32.3665645 C67.3393426,32.4300868 66.6874423,32.4633773 66.0350585,32.4663293 C58.8792773,32.467335 52.2052892,28.8361375 48.2854645,22.8090928 L48.2854645,55.6944345 C48.2854645,69.1180277 37.4763952,80 24.1427322,80 C10.8090694,80 0,69.1180277 0,55.6944345 C0,42.2708415 10.8090694,31.388869 24.1427322,31.388869 C24.6467086,31.388869 25.1393597,31.434476 25.6348419,31.4658305 L25.6348419,43.4433123 C25.1393597,43.3834532 24.6523713,43.2922397 24.1427322,43.2922397 C17.3375135,43.2922397 11.8207936,48.8461677 11.8207936,55.697285 C11.8207936,62.5484022 17.3375135,68.1023302 24.1427322,68.1023302 C30.9492444,68.1023302 36.9601533,62.7036272 36.9601533,55.8512078 L37.079069,0 L48.4610069,0 C49.5342819,10.2755927 57.7642877,18.3017717 68,19.0550844 L68,32.3665645"></path>
        </symbol>
        <symbol id="ucf-social-icons--instagram" viewBox="0 0 80 80">
            <path fill="currentColor" d="M40.0081449,19.4882316 C51.3589536,19.4882316 60.5145588,28.6458797 60.5145588,39.9992212 C60.5145588,51.3525627 51.3589536,60.5102108 40.0081449,60.5102108 C28.6573362,60.5102108 19.5017311,51.3525627 19.5017311,39.9992212 C19.5017311,28.6458797 28.6573362,19.4882316 40.0081449,19.4882316 Z M40.0081449,26.6644002 C32.6551053,26.6644002 26.6762989,32.6445408 26.6762989,39.9992212 C26.6762989,47.3539015 32.6729525,53.3340421 40.0081449,53.3340421 C47.3433374,53.3340421 53.339991,47.3539015 53.339991,39.9992212 C53.339991,32.6445408 47.3611845,26.6644002 40.0081449,26.6644002 Z M66.1364216,18.6492268 C66.1364216,21.3090505 63.9947596,23.4333392 61.3533764,23.4333392 C58.6941461,23.4333392 56.5703312,21.2911993 56.5703312,18.6492268 C56.5703312,16.0072542 58.7119932,13.8651143 61.3533764,13.8651143 C63.9947596,13.8651143 66.1364216,16.0072542 66.1364216,18.6492268 Z M41.0406874,-1.26417973e-15 C47.2837149,0.00934590126 53.3709887,0.102804914 56.4989425,0.280377038 C62.9060814,0.601698024 68.5814857,2.06549363 73.2574478,6.7424991 C77.951257,11.4195046 79.4147261,17.0961753 79.7181282,23.5047439 C80.0929191,30.1096753 80.0929191,49.8887671 79.7181282,56.4936985 C79.3968789,62.902267 77.9334099,68.5789378 73.2574478,73.2559433 C68.5814857,77.9507999 62.9060814,79.4145955 56.4989425,79.7180653 C49.8954846,80.0929398 30.1029581,80.0929398 23.4995002,79.7180653 C17.0923613,79.3967443 11.4348042,77.9329487 6.74099491,73.2559433 C2.04718565,68.5789378 0.583716608,62.902267 0.280314489,56.4936985 C0.102781979,53.3650468 0.00934381629,47.2764146 -5.50393064e-14,41.031994 L-5.5035837e-14,38.9485972 C0.00934381629,32.7041766 0.102781979,26.6155444 0.280314489,23.4868927 C0.601563791,17.0783242 2.04718565,11.4016534 6.74099491,6.72464793 C11.4348042,2.04764246 17.1102085,0.583846858 23.4995002,0.280377038 C26.6274539,0.102804914 32.7147278,0.00934590126 38.9577553,-1.36869682e-15 Z M40.0081449,7.20662941 C34.1899631,7.20662941 21.6969347,6.72464793 16.4320155,8.81323434 C12.9161204,10.2234764 10.2211957,12.9190025 8.82911538,16.417831 C6.7588421,21.6660738 7.22286887,34.1797411 7.22286887,39.9992212 L7.22221703,40.3880751 C7.20313238,46.3585809 6.78638884,58.4289977 8.82911538,63.5806113 C10.2390429,67.097291 12.9339676,69.7928171 16.4320155,71.185208 C21.6790875,73.2559433 34.1899631,72.7918129 40.0081449,72.7918129 C45.8263268,72.7918129 58.3193552,73.2737944 63.5842743,71.185208 C67.1001695,69.7749659 69.7950942,67.0794399 71.1871745,63.5806113 C73.275295,58.3323686 72.793421,45.8187013 72.793421,39.9992212 C72.793421,34.1797411 73.275295,21.683925 71.1871745,16.417831 C69.777247,12.9011513 67.0823223,10.2056253 63.5842743,8.81323434 C58.3372024,6.7424991 45.8263268,7.20662941 40.0081449,7.20662941 Z"></path>
        </symbol>
        <symbol id="ucf-social-icons--email" viewBox="0 0 116 80">
            <path fill="currentColor" d="M114.959534,74 C115.618839,72.6102606 116,71.0649534 116,69.4237127 L116,10.5775837 C116,8.93763941 115.618839,7.38973939 114.959534,6 L76,40.0006482 L114.959534,74 Z"></path>
            <path fill="currentColor" d="M55.7642593,44.2022375 C56.1758007,44.5481928 56.9356687,45 58.0012901,45 C59.0514303,45 59.8061379,44.5598107 60.252512,44.1906196 L62.6172625,42.1355422 L110,1.0404475 C108.620885,0.38080895 107.083087,2.84217094e-14 105.456273,2.84217094e-14 L10.5463071,2.84217094e-14 C8.91820279,2.84217094e-14 7.38169549,0.38080895 6,1.0404475 L55.7642593,44.2022375 Z"></path>
            <path fill="currentColor" d="M1.04039916,6 C0.379848704,7.38844299 0,8.93634301 0,10.5762873 L0,69.4237127 C0,71.0649534 0.379848704,72.611557 1.04168679,74 L40,40.0006482 L1.04039916,6 Z"></path>
            <path fill="currentColor" d="M70.5849108,45 L64.8168804,49.9697691 C62.8585109,51.5806156 60.4602178,52.4373397 58,52.4373397 C55.5023693,52.4373397 53.0782742,51.5562477 51.1702186,49.9569439 L45.4163793,45 L6,78.9650055 C7.38040539,79.6203738 8.91820279,80 10.545017,80 L105.453693,80 C107.081797,80 108.618305,79.6203738 110,78.9650055 L70.5849108,45 Z"></path>
        </symbol>
        <symbol id="ucf-social-icons--share" viewBox="0 0 80 80">
            <path fill="currentColor" d="M66.6164845,53.2085681 C63.1437283,53.2109807 59.8092638,54.5711013 57.3238948,56.9989945 L26.6324804,42.1062811 C26.758999,41.4111077 26.8298018,40.7069234 26.8442125,40.0004557 C26.8294611,39.2947643 26.7584614,38.5913772 26.6318898,37.8969952 L57.3292103,23.0063509 C61.9051385,27.4146647 68.9491887,27.9883965 74.1768924,24.37858 C79.404596,20.7687635 81.37038,13.973591 78.8785773,8.12615378 C76.3867745,2.27871658 70.1264223,-1.0040426 63.9053131,0.274579559 C57.684204,1.55320172 53.222609,7.03963856 53.2342458,13.3968233 C53.254982,13.9535679 53.3110053,14.5084334 53.4019778,15.0580724 L22.39518,30.0985838 C17.0510414,25.2250002 8.80618043,25.4810046 3.77407733,30.6767725 C-1.25802578,35.8725403 -1.25802578,44.1295536 3.77407733,49.3253214 C8.80618043,54.5210893 17.0510414,54.7770937 22.39518,49.9035101 L53.4019778,64.9493423 C53.3115683,65.4970504 53.2558418,66.0499321 53.2351317,66.6046794 C53.2353706,72.0226884 56.4960957,76.9070558 61.4968232,78.9801895 C66.4975507,81.0533233 72.2534628,79.906951 76.0805641,76.0756287 C79.9076654,72.2443064 81.052266,66.4825554 78.9806359,61.4770935 C76.9090059,56.4716317 72.0291216,53.2082094 66.6164845,53.2085681 Z"></path>
        </symbol>
    </defs>
</svg>
