<svg id="social-icons" style="display: none;">
    <symbol id="ucf-social-icons--facebook" viewBox="0 0 43 80">
        <path fill="currentColor" d="M40.182153,45 L42.4119685,30.521875 L28.4701335,30.521875 L28.4701335,21.1265625 C28.4701335,17.165625 30.4176938,13.3046875 36.6618044,13.3046875 L43,13.3046875 L43,0.978125 C43,0.978125 37.2482678,0 31.7489972,0 C20.267486,0 12.7626358,6.934375 12.7626358,19.4875 L12.7626358,30.521875 L0,30.521875 L0,45 L12.7626358,45 L12.7626358,80 L28.4701335,80 L28.4701335,45 L40.182153,45 Z"></path>
    </symbol>
    <symbol id="ucf-social-icons--twitter" viewBox="0 0 98 80">
        <path fill="currentColor" d="M87.9266325,19.9374274 C87.9888398,20.8123856 87.9888398,21.6875362 87.9888398,22.5624944 C87.9888398,49.2498743 67.7795148,80 30.8427494,80 C19.4632206,80 8.89219489,76.6873559 0,70.937603 C1.61681491,71.1249841 3.17123114,71.1875086 4.85025332,71.1875086 C14.2397236,71.1875086 22.8832808,68.0001058 29.7856085,62.5625906 C20.9556209,62.3750171 13.5558264,56.5625473 11.0062852,48.5624896 C12.2500479,48.7498707 13.4936191,48.8749197 14.7995891,48.8749197 C16.6028344,48.8749197 18.4062711,48.6248217 20.0851019,48.187535 C10.882062,46.3123772 3.97954289,38.1874629 3.97954289,28.3749642 L3.97954289,28.1250586 C6.65330724,29.6250694 9.76271392,30.5625522 13.0581682,30.6874088 C7.64824081,27.0623345 4.10395744,20.8749101 4.10395744,13.8748596 C4.10395744,10.1249288 5.0986996,6.68742801 6.83992906,3.68740636 C16.7270575,15.9373985 31.5888539,23.9372639 48.2537041,24.8124145 C47.9428592,23.3124037 47.7562373,21.7500607 47.7562373,20.1875254 C47.7562373,9.06239704 56.7106395,0 67.8413392,0 C73.6243188,0 78.8476244,2.43749354 82.5165137,6.3749979 C87.0557307,5.50003968 91.4085172,3.81245536 95.2640284,1.50001082 C93.7714366,6.18761678 90.6002055,10.1251211 86.4340408,12.6249468 C90.4759823,12.1876601 94.3935093,11.0624115 98,9.50006854 C95.2644112,13.499905 91.8441595,17.0622624 87.9266325,19.9374274 Z"></path>
    </symbol>
    <symbol id="ucf-social-icons--linkedin" viewBox="0 0 80 80">
        <path fill="currentColor" d="M74.2857143,0 L5.69642857,0 C2.55357143,0 0,2.58928571 0,5.76785714 L0,74.2321429 C0,77.4107143 2.55357143,80 5.69642857,80 L74.2857143,80 C77.4285714,80 80,77.4107143 80,74.2321429 L80,5.76785714 C80,2.58928571 77.4285714,0 74.2857143,0 Z M24.1785714,68.5714286 L12.3214286,68.5714286 L12.3214286,30.3928571 L24.1964286,30.3928571 L24.1964286,68.5714286 L24.1785714,68.5714286 Z M18.25,25.1785714 C14.4464286,25.1785714 11.375,22.0892857 11.375,18.3035714 C11.375,14.5178571 14.4464286,11.4285714 18.25,11.4285714 C22.0357143,11.4285714 25.125,14.5178571 25.125,18.3035714 C25.125,22.1071429 22.0535714,25.1785714 18.25,25.1785714 L18.25,25.1785714 Z M68.625,68.5714286 L56.7678571,68.5714286 L56.7678571,50 C56.7678571,45.5714286 56.6785714,39.875 50.6071429,39.875 C44.4285714,39.875 43.4821429,44.6964286 43.4821429,49.6785714 L43.4821429,68.5714286 L31.625,68.5714286 L31.625,30.3928571 L43,30.3928571 L43,35.6071429 L43.1607143,35.6071429 C44.75,32.6071429 48.625,29.4464286 54.3928571,29.4464286 C66.3928571,29.4464286 68.625,37.3571429 68.625,47.6428571 L68.625,68.5714286 L68.625,68.5714286 Z"></path>
    </symbol>
    <symbol id="ucf-social-icons--email" viewBox="0 0 116 80">
        <path fill="currentColor" d="M114.959534,74 C115.618839,72.6102606 116,71.0649534 116,69.4237127 L116,10.5775837 C116,8.93763941 115.618839,7.38973939 114.959534,6 L76,40.0006482 L114.959534,74 Z"></path>
        <path fill="currentColor" d="M55.7642593,44.2022375 C56.1758007,44.5481928 56.9356687,45 58.0012901,45 C59.0514303,45 59.8061379,44.5598107 60.252512,44.1906196 L62.6172625,42.1355422 L110,1.0404475 C108.620885,0.38080895 107.083087,0 105.456273,0 L10.5463071,0 C8.91820279,0 7.38169549,0.38080895 6,1.0404475 L55.7642593,44.2022375 Z"></path>
        <path fill="currentColor" d="M1.04039916,6 C0.379848704,7.38844299 0,8.93634301 0,10.5762873 L0,69.4237127 C0,71.0649534 0.379848704,72.611557 1.04168679,74 L40,40.0006482 L1.04039916,6 Z"></path>
        <path fill="currentColor" d="M70.5849108,45 L64.8168804,49.9697691 C62.8585109,51.5806156 60.4602178,52.4373397 58,52.4373397 C55.5023693,52.4373397 53.0782742,51.5562477 51.1702186,49.9569439 L45.4163793,45 L6,78.9650055 C7.38040539,79.6203738 8.91820279,80 10.545017,80 L105.453693,80 C107.081797,80 108.618305,79.6203738 110,78.9650055 L70.5849108,45 Z"></path>
    </symbol>
</svg>
