<svg id="ucf-social-icons--circle" style="display: none;">
    <symbol id="ucf-social-icons--circle-facebook" viewBox="0 0 80 80">
        <path
        fill="currentColor"
        d="M80,39.8242055 C80,17.8245436 62.0967742,0 40,0 C17.9032258,0 0,17.8245436 0,39.8242055 C0,59.7009804 14.6274194,76.1766396 33.75,79.1666667 L33.75,51.3362914 L23.5887097,51.3362914 L23.5887097,39.8242055 L33.75,39.8242055 L33.75,31.0500338 C33.75,21.0698952 39.7177419,15.5571332 48.8580645,15.5571332 C53.2354839,15.5571332 57.8129032,16.3343475 57.8129032,16.3343475 L57.8129032,26.1298174 L52.7677419,26.1298174 C47.8,26.1298174 46.25,29.2001352 46.25,32.3491379 L46.25,39.8242055 L57.3435484,39.8242055 L55.5693548,51.3362914 L46.25,51.3362914 L46.25,79.1666667 C65.3725806,76.1766396 80,59.7009804 80,39.8242055 Z">
        </path>
    </symbol>
    <symbol id="ucf-social-icons--circle-twitter" viewBox="85 0 80 80">
        <path
        fill="currentColor"
        d="M125,0 C102.90861,0 85,17.90861 85,40 C85,62.09139 102.90861,80 125,80 C147.09139,80 165,62.09139 165,40 C164.98333,17.9155185 147.084482,0.0166696372 125,0 L125,0 Z M148.576826,27.9093199 C147.670025,28.8161209 146.763224,29.7229219 145.856423,30.7304786 C145.276314,31.4505057 144.925358,32.3278957 144.848866,33.2493703 C144.143577,46.7506297 134.874055,59.0428212 121.27204,61.1586902 C114.677225,62.2873859 107.894531,61.1510183 102.027708,57.9345088 C101.826196,57.8337531 101.624685,57.6322418 101.423174,57.5314861 L101.423174,57.2292191 C106.360202,57.2292191 111.095718,56.4231738 115.2267,53.2997481 C111.397985,52.0906801 107.972292,50.4785894 106.460957,46.0453401 L109.987406,46.0453401 L110.088161,45.743073 C107.392017,44.7323164 105.166321,42.7579084 103.84131,40.2015113 C103.337531,38.6901763 102.833753,37.1788413 102.43073,35.6675063 L106.360202,36.7758186 L106.662469,36.5743073 C102.732997,32.7455919 101.926952,28.3123426 104.143577,23.2745592 C109.685139,29.5214106 116.335013,33.3501259 124.798489,33.9546599 C124.697715,32.7140498 124.697715,31.4673104 124.798489,30.2267003 C125.529241,24.7776707 130.531273,20.9472861 135.982368,21.6624685 C137.252732,21.8507153 138.480332,22.2599151 139.609572,22.8715365 C139.710327,22.9722922 139.911839,22.9722922 140.012594,23.0730479 C141.725441,24.8866499 143.539043,24.4836272 145.554156,23.5768262 L148.274559,22.3677582 L148.576826,22.6700252 L145.251889,27.3047859 L145.352645,27.5062972 L149.382872,26.3979849 L149.483627,26.5994962 C149.18136,27.0025189 148.879093,27.5062972 148.576826,27.9093199 Z">
        </path>
    </symbol>
    <symbol id="ucf-social-icons--circle-share" viewBox="170 0 80 80">
        <path
        fill="currentColor"
        d="M209.999897,0.0998981408 C220.615914,0.0758527953 230.804081,4.28236036 238.310758,11.7890374 C245.817435,19.2957144 250.023943,29.4838816 249.999897,40.0998981 L249.999897,40.0998981 L249.994539,40.7613696 C249.641306,62.5476121 231.870317,80.0997956 209.999897,80.0997956 C187.908564,80.0997956 170,62.1912317 170,40.0998981 C170,18.0085655 187.908564,0.0998981408 209.999897,0.0998981408 Z M223.098019,16.3217443 C217.450083,16.3496703 212.89405,20.9507383 212.921804,26.5986739 C212.921804,27.0016955 213.022559,27.3039617 213.022559,27.7069834 L213.022559,27.7069834 L201.536443,33.4500416 C197.485896,29.6714193 191.159501,29.8178734 187.288147,33.7798852 C183.416793,37.741897 183.416793,44.0699867 187.288147,48.0319985 C191.159501,51.9940103 197.485896,52.1404644 201.536443,48.3618421 L201.536443,48.3618421 L213.123315,54.1049003 C213.044142,54.4687665 213.0103,54.8410316 213.022559,55.2132098 C213.0535,57.7843465 214.020678,60.2560239 215.742955,62.165333 C218.555057,65.1825209 222.907887,66.2084263 226.771393,64.7645924 C230.634899,63.3207585 233.248075,59.6915818 233.3922,55.5696204 C233.536324,51.4476591 231.183009,47.6448288 227.429782,45.9346756 C223.676555,44.2245223 219.262701,44.9439004 216.246732,47.7573096 L216.246732,47.7573096 L204.760616,42.0142513 C204.839789,41.6503852 204.873631,41.2781201 204.861371,40.9059418 C204.834541,40.5302973 204.766974,40.15868 204.65986,39.7976324 L204.65986,39.7976324 L216.145977,34.0545741 C218.084192,35.7949255 220.593984,36.762988 223.198856,36.7749701 C228.84679,36.7470792 233.402749,32.1459375 233.374904,26.4980024 C233.347059,20.8500673 228.745954,16.2940713 223.098019,16.3217443 Z">
        </path>
    </symbol>
    <symbol id="ucf-social-icons--circle-youtube" viewBox="255 0 80 80">
        <path
        fill="currentColor"
        d="M295,0 C317.084482,0.0166696372 334.98333,17.9155185 335,40 C335,62.09139 317.09139,80 295,80 C272.90861,80 255,62.09139 255,40 C255,17.90861 272.90861,0 295,0 Z M295.051672,20.1518236 L294.343796,20.1518236 C291.780913,20.1595136 276.048349,20.2528918 271.866274,21.3867706 C269.352012,22.0668766 267.371804,24.0705106 266.699714,26.6147224 C266.231616,28.3824763 265.942956,30.8864217 265.764949,33.3023836 L265.720977,33.9300967 C265.506291,37.1573699 265.481755,40.0946154 265.478951,40.7238337 L265.478951,40.9717373 C265.484017,42.1083896 265.559998,50.7767522 266.699714,55.0808486 C267.371804,57.6250603 269.352012,59.5453217 271.866274,60.2253201 C273.68923,60.7195749 277.706855,61.0161278 281.87174,61.1940596 L282.607832,61.224244 C287.76534,61.427141 292.963782,61.4561263 294.343796,61.4602671 L295.05167,61.4602671 C296.431684,61.4561263 301.630126,61.427141 306.787634,61.224244 L307.523726,61.1940596 C311.688611,61.0161278 315.706236,60.7195749 317.529192,60.2253201 C320.043454,59.5453217 322.023662,57.6250603 322.695752,55.0808486 C323.815116,50.8536111 323.908397,42.4165824 323.91617,41.0397667 L323.91617,40.6558042 C323.908397,39.2789886 323.815116,30.8419599 322.695752,26.6147224 C322.023662,24.0705106 320.043454,22.066769 317.529192,21.3867706 C313.347215,20.2528918 297.614569,20.1595136 295.051672,20.1518236 Z M288.652393,32.2418136 L303.765743,40.8062563 L288.652393,49.3702771 L288.652393,32.2418136 Z">
        </path>
    </symbol>
    <symbol id="ucf-social-icons--circle-linkedin" viewBox="340 0 80 80">
        <path
        fill="currentColor"
        d="M380,0 C402.084482,0.0166696372 419.98333,17.9155185 420,40 C420,62.09139 402.09139,80 380,80 C357.90861,80 340,62.09139 340,40 C340,17.90861 357.90861,0 380,0 Z M369.219144,31.8387909 L360.352645,31.8387909 L360.352645,58.9420655 L369.219144,58.9420655 L369.219144,31.8387909 Z M394.206549,31.3350126 C390.075567,30.4282116 386.347607,31.3350126 383.72796,35.0629723 L383.72796,35.0629723 L383.425693,35.3652393 L383.425693,31.8387909 L374.458438,31.8387909 L374.458438,58.8413098 L383.324937,58.8413098 L383.324937,43.4256927 C383.303668,41.7557801 384.092114,40.1788866 385.440806,39.1939547 C385.954735,38.7944704 386.534356,38.4876122 387.153652,38.2871537 C389.506737,37.7774724 391.848929,39.191626 392.493703,41.511335 C392.782462,42.5610753 392.918202,43.6469967 392.896725,44.7355164 L392.896725,44.7355164 L392.896725,58.8413098 L401.86398,58.8413098 L401.86398,43.2241814 C401.879702,41.8699752 401.744527,40.5182316 401.460957,39.1939547 C400.654912,35.163728 398.337531,32.2418136 394.206549,31.3350126 Z M366.599496,18.9420655 C363.879093,18.1360202 360.957179,19.3450882 360.050378,21.7632242 C358.84131,25.0881612 361.15869,28.1108312 364.785894,28.1108312 C367.031632,28.2692373 369.085268,26.8442655 369.722922,24.6851385 C370.421592,22.2393951 369.032232,19.6847637 366.599496,18.9420655 Z">
        </path>
    </symbol>
    <symbol id="ucf-social-icons--circle-tiktok" viewBox="425 0 80 80">
        <path
        fill="currentColor"
        d="M465,0 C487.084482,0.0166696372 504.98333,17.9155185 505,40 C505,62.09139 487.09139,80 465,80 C442.90861,80 425,62.09139 425,40 C425,17.90861 442.90861,0 465,0 Z M474.057122,14 L466.692339,14 L466.615393,49.6051449 C466.615393,53.9735624 462.725982,57.4152355 458.321768,57.4152355 C453.918391,57.4152355 450.348749,53.8746064 450.348749,49.5070192 C450.348749,45.1394319 453.918391,41.5988028 458.321768,41.5988028 C458.651534,41.5988028 458.966644,41.6569514 459.287251,41.6951116 L459.287251,41.6951116 L459.287251,34.0594669 C458.966644,34.0394785 458.64787,34.010404 458.321768,34.010404 C449.694104,34.010404 442.7,40.9476615 442.7,49.505202 C442.7,58.0627427 449.694104,65 458.321768,65 C466.949432,65 473.943536,58.0627427 473.943536,49.505202 L473.943536,49.505202 L473.943536,28.5407967 C476.479893,32.3830377 480.798356,34.6979261 485.428567,34.6972849 C485.850698,34.695403 486.272516,34.6741803 486.692672,34.6336849 L486.692672,34.6336849 L486.7,34.6336849 L486.7,26.1476163 C480.076892,25.6673795 474.751594,20.5506903 474.057122,14 L474.057122,14 Z">
        </path>
    </symbol>
    <symbol id="ucf-social-icons--circle-instagram" viewBox="510 0 80 80">
        <path
        fill="currentColor"
        d="M550,5.89750471e-12 C572.084482,0.0166696372 589.98333,17.9155185 590,40 C590,62.09139 572.09139,80 550,80 C527.90861,80 510,62.09139 510,40 C510,17.90861 527.90861,5.89750471e-12 550,5.89750471e-12 Z M550.590205,13.0008435 L548.809795,13.0008435 C544.66166,13.0087158 540.642777,13.0716947 538.562688,13.1897802 C534.249916,13.3946223 530.419018,14.3826844 527.250697,17.5396631 C524.082376,20.6966417 523.106581,24.5283945 522.889738,28.8541783 C522.771679,30.9347317 522.708714,34.9545108 522.700843,39.1035716 L522.700843,40.8843789 C522.708714,45.0334397 522.771679,49.0532188 522.889738,51.1337722 C523.094534,55.459556 524.082376,59.2913087 527.250697,62.4482874 C530.419018,65.6052661 534.237869,66.5933281 538.562688,66.8102198 C540.642777,66.9283053 544.66166,66.9912842 548.809795,66.9991565 L550.590205,66.9991565 C554.73834,66.9912842 558.757223,66.9283053 560.837312,66.8102198 C565.162131,66.6053777 568.993028,65.6173156 572.149303,62.4482874 C575.305577,59.2913087 576.293419,55.459556 576.510262,51.1337722 C576.628321,49.0532188 576.691286,45.0360638 576.699157,40.8898021 L576.699157,39.1101979 C576.691286,34.9639362 576.628321,30.9467812 576.510262,28.8662278 C576.305466,24.540444 575.317624,20.7086913 572.149303,17.5517126 C568.993028,14.3947339 565.162131,13.4066719 560.837312,13.1897802 C558.757223,13.0716947 554.73834,13.0087158 550.590205,13.0008435 Z M549.7,18.0321986 C553.598478,18.0321986 561.9814,17.721277 565.497205,19.1084654 C567.841075,20.0412299 569.646812,21.8469665 570.591535,24.2027949 C571.990681,27.7305584 571.667801,36.1015224 571.667801,40 C571.667801,43.8984776 571.990681,52.2814001 570.591535,55.7972051 C569.65877,58.141075 567.853034,59.9468115 565.497205,60.8915346 C561.969442,62.2906815 553.598478,61.9678014 549.7,61.9678014 C545.801522,61.9678014 537.4186,62.278723 533.902795,60.8915346 C531.558925,59.9587701 529.753188,58.1530335 528.808465,55.7972051 C527.409319,52.2694416 527.732199,43.8984776 527.732199,40 C527.732199,36.1015224 527.421277,27.7185999 528.808465,24.2027949 C529.74123,21.858925 531.546966,20.0531885 533.902795,19.1084654 C537.430558,17.7093185 545.801522,18.0321986 549.7,18.0321986 Z M549.7,26 C541.950653,26 535.7,32.2506527 535.7,40 C535.7,47.7493473 541.950653,54 549.7,54 C557.449347,54 563.7,47.7493473 563.7,40 C563.7,32.2506527 557.449347,26 549.7,26 Z M549.7,31 C554.663855,31 558.7,35.0361446 558.7,40 C558.7,44.9638554 554.651807,49 549.7,49 C544.748193,49 540.7,44.9638554 540.7,40 C540.7,35.0361446 544.736145,31 549.7,31 Z M563.7,23 C562.043284,23 560.7,24.3432836 560.7,26 C560.7,27.6567164 562.03209,29 563.7,29 C565.356716,29 566.7,27.6679104 566.7,26 C566.7,24.3432836 565.356716,23 563.7,23 Z">
        </path>
    </symbol>
</svg>
