<?xml version="1.0" encoding="UTF-8"?>
<svg width="28px" height="32px" viewBox="0 0 28 32" version="1.1" xmlns="http://www.w3.org/2000/svg" xmlns:xlink="http://www.w3.org/1999/xlink">
    <title>Path</title>
    <g id="Page-1" stroke="none" stroke-width="1" fill="none" fill-rule="evenodd">
        <path d="M27.3043523,12.9466258 C27.0435795,12.9720347 26.7817754,12.9853509 26.5197771,12.9865317 C23.6460048,12.986934 20.9657213,11.534455 19.3915139,9.12363714 L19.3915139,22.2777738 C19.3915139,27.6472111 15.0505757,32 9.69575695,32 C4.34093825,32 0,27.6472111 0,22.2777738 C0,16.9083366 4.34093825,12.5555476 9.69575695,12.5555476 C9.8981546,12.5555476 10.096004,12.5737904 10.2949904,12.5863322 L10.2949904,17.3773249 C10.096004,17.3533813 9.90042873,17.3168959 9.69575695,17.3168959 C6.96277103,17.3168959 4.74724819,19.5384671 4.74724819,22.278914 C4.74724819,25.0193609 6.96277103,27.2409321 9.69575695,27.2409321 C12.4292623,27.2409321 14.8432522,25.0814509 14.8432522,22.3404831 L14.8910089,0 L19.462012,0 C19.8930408,4.11023708 23.1982233,7.32070868 27.3089005,7.62203378 L27.3089005,12.9466258" id="Path" fill="#FFFFFF" fill-rule="nonzero"></path>
    </g>
</svg>