<?xml version="1.0" encoding="UTF-8"?>
<svg width="29px" height="32px" viewBox="0 0 29 32" version="1.1" xmlns="http://www.w3.org/2000/svg" xmlns:xlink="http://www.w3.org/1999/xlink">
    <title>logo-dark-e95da587b6efa1520dcd11f4b45c0cf6 copy</title>
    <g id="Page-1" stroke="none" stroke-width="1" fill="none" fill-rule="evenodd">
        <g id="logo-dark-e95da587b6efa1520dcd11f4b45c0cf6-copy" fill-rule="nonzero">
            <path d="M11.6888281,12.2449655 L11.6888281,11.0333793 C11.2682472,10.9667308 10.8434411,10.9302241 10.4176556,10.9240955 C6.29548286,10.9154213 2.64595808,13.5866686 1.40812505,17.5186088 C0.170292018,21.4505491 1.63141259,25.7307033 5.01517289,28.0849655 C2.48049518,25.3722852 1.77669737,21.4233104 3.21815587,18.0019915 C4.65961436,14.5806726 7.97713468,12.325946 11.6888281,12.2449655 L11.6888281,12.2449655 Z" id="路径" fill="#25F4EE"></path>
            <path d="M11.9172419,25.9696552 C14.2220008,25.9665543 16.1164822,24.1508273 16.2173798,21.8482759 L16.2173798,1.30096552 L19.9713108,1.30096552 C19.8946853,0.87162934 19.8581142,0.436102502 19.8620695,0 L14.7277246,0 L14.7277246,20.5274483 C14.642351,22.8417158 12.7434253,24.6748588 10.4275867,24.6786207 C9.73553724,24.6727286 9.05478439,24.5025404 8.44137979,24.182069 C9.24769832,25.2992263 10.539507,25.9635851 11.9172419,25.9696552 Z" id="路径" fill="#25F4EE"></path>
            <path d="M26.9826212,8.27255172 L26.9826212,7.13048276 C25.6010906,7.13095572 24.2502099,6.72327302 23.0995867,5.95862069 C24.1082621,7.1311955 25.4713141,7.94344893 26.9826212,8.27255172 L26.9826212,8.27255172 Z" id="路径" fill="#25F4EE"></path>
            <path d="M23.0995867,5.95862069 C21.9661607,4.66791553 21.341329,3.00875801 21.3417936,1.29103448 L19.9713108,1.29103448 C20.3290433,3.21039081 21.4602448,4.89821529 23.0995867,5.95862069 L23.0995867,5.95862069 Z" id="路径" fill="#FE2C55"></path>
            <path d="M10.4176556,16.0584828 C8.43984411,16.0686301 6.72276638,17.4235958 6.25302423,19.3448411 C5.78328209,21.2660865 6.68144663,23.2604758 8.43144875,24.182069 C7.48321755,22.872932 7.34926813,21.1426099 8.08472093,19.703134 C8.82017375,18.2636579 10.3007702,17.3582349 11.9172419,17.3594483 C12.3482594,17.3648194 12.7763025,17.4317011 13.1884143,17.558069 L13.1884143,12.3343448 C12.7675643,12.2712883 12.3427785,12.2381019 11.9172419,12.2350345 L11.6888281,12.2350345 L11.6888281,16.2074483 C11.2745771,16.096374 10.8463634,16.0461927 10.4176556,16.0584828 Z" id="路径" fill="#FE2C55"></path>
            <path d="M26.9826212,8.27255172 L26.9826212,12.2449655 C24.4250873,12.2400192 21.933942,11.4304838 19.8620695,9.93103448 L19.8620695,20.3685517 C19.8511162,25.5767991 15.6259146,29.793115 10.4176556,29.7931034 C8.48345099,29.7965352 6.5958348,29.1997154 5.01517289,28.0849655 C7.65307638,30.9220742 11.7584061,31.8559768 15.3640121,30.4391754 C18.969618,29.022374 21.3409723,25.5434971 21.3417936,21.6695172 L21.3417936,11.2617931 C23.4206168,12.7514148 25.9148442,13.5504013 28.4722764,13.545931 L28.4722764,8.43144828 C27.9715814,8.42985469 27.4723868,8.37660728 26.9826212,8.27255172 Z" id="路径" fill="#FE2C55"></path>
            <path d="M19.8620695,20.3685517 L19.8620695,9.93103448 C21.9402816,11.4218712 24.4349114,12.2209866 26.9925522,12.2151724 L26.9925522,8.24275862 C25.4815351,7.92368705 24.1152096,7.12201646 23.0995867,5.95862069 C21.4602448,4.89821529 20.3290433,3.21039081 19.9713108,1.29103448 L16.2173798,1.29103448 L16.2173798,21.8482759 C16.1422889,23.6823059 14.9138666,25.267551 13.1566394,25.7980769 C11.3994123,26.3286028 9.49898028,25.6879927 8.42151772,24.201931 C6.67151559,23.2803379 5.77335105,21.2859486 6.2430932,19.3647032 C6.71283535,17.4434579 8.42991308,16.0884922 10.4077246,16.0783448 C10.8388691,16.0821874 11.2671306,16.1491033 11.678897,16.2769655 L11.678897,12.3045517 C7.94639063,12.3677817 4.60380443,14.630377 3.15824932,18.0721749 C1.71269423,21.5139727 2.43725554,25.48477 5.00524186,28.1942069 C6.60148776,29.2722269 8.49185262,29.830665 10.4176556,29.7931034 C15.6259146,29.793115 19.8511162,25.5767991 19.8620695,20.3685517 Z" id="路径" fill="#FFFFFF"></path>
        </g>
    </g>
</svg>